<?xml version="1.0" standalone="no"?>
<!DOCTYPE svg PUBLIC "-//W3C//DTD SVG 20010904//EN"
 "http://www.w3.org/TR/2001/REC-SVG-20010904/DTD/svg10.dtd">
<svg version="1.0" xmlns="http://www.w3.org/2000/svg"
 width="128.000000pt" height="128.000000pt" viewBox="0 0 128.000000 128.000000"
 preserveAspectRatio="xMidYMid meet">

<g transform="translate(0.000000,128.000000) scale(0.100000,-0.100000)"
fill="#000000" stroke="none">
<path d="M670 1125 l0 -114 91 53 c50 28 91 56 90 62 0 5 -41 32 -91 61 l-90
52 0 -114z"/>
<path d="M242 1026 c-51 -30 -94 -56 -95 -60 -1 -3 41 -31 93 -61 l95 -55 3
60 c2 34 2 85 0 115 l-3 54 -93 -53z"/>
<path d="M390 965 l0 -117 38 22 c20 12 61 36 89 52 29 17 55 34 58 38 3 5
-23 25 -57 46 -35 20 -78 46 -95 56 l-33 20 0 -117z"/>
<path d="M946 1073 c-12 -12 -7 -213 5 -213 21 0 191 102 182 110 -22 20 -182
108 -187 103z"/>
<path d="M1073 867 c-51 -28 -93 -55 -93 -59 0 -4 42 -32 93 -62 l92 -54 3 59
c2 33 2 84 0 114 l-3 55 -92 -53z"/>
<path d="M194 744 c-18 -14 -18 -15 4 -4 12 6 22 13 22 15 0 8 -5 6 -26 -11z"/>
<path d="M238 706 c-48 -28 -89 -54 -92 -57 -6 -6 167 -109 183 -109 7 0 11
38 11 110 0 61 -3 110 -7 109 -5 0 -47 -24 -95 -53z"/>
<path d="M390 645 l0 -117 23 14 c12 8 55 34 95 57 39 23 72 45 72 49 0 4 -17
16 -38 28 -20 11 -63 35 -94 53 l-58 33 0 -117z"/>
<path d="M130 710 c-9 -6 -10 -10 -3 -10 6 0 15 5 18 10 8 12 4 12 -15 0z"/>
<path d="M1073 547 c-51 -28 -93 -55 -93 -59 0 -4 42 -32 93 -62 l92 -54 3 59
c2 33 2 84 0 114 l-3 54 -92 -52z"/>
<path d="M460 467 c0 -6 136 -87 146 -87 5 0 0 6 -11 14 -35 23 -135 78 -135
73z"/>
<path d="M730 420 c-36 -22 -60 -40 -55 -40 8 0 122 64 134 76 17 16 -25 -3
-79 -36z"/>
<path d="M793 387 c-51 -28 -93 -55 -93 -59 0 -9 178 -110 188 -106 4 2 5 51
2 110 l-5 108 -92 -53z"/>
<path d="M180 307 c0 -9 142 -88 151 -85 5 2 -27 22 -71 46 -44 24 -80 41 -80
39z"/>
<path d="M433 163 c9 -15 167 -106 173 -100 3 3 -21 19 -53 37 -32 18 -73 42
-92 53 -19 12 -31 16 -28 10z"/>
<path d="M757 118 c-48 -28 -86 -52 -83 -55 5 -5 186 95 186 103 0 9 -18 0
-103 -48z"/>
</g>
</svg>
